# xmcd
#
# Track frame offsets:
#	150
#	17701
#	41802
#	65609
#	81289
#	90702
#	107700
#	122442
#	139777
#	158374
#	184142
#
# Disc length: 2792 seconds
#
# Revision: 1
# Processed by: cddbd v1.5.1PL0 Copyright (c) Steve Scherf et al.
# Submitted via: audiograbber 1.83.01
#
DISCID=8a0ae60b
DTITLE=Iris Dement - The Way I Should
DYEAR=1900
DGENRE=
TTITLE0=When My Mornin' Comes Around
TTITLE1=There's a Wall in Washington
TTITLE2=Wasteland of the Free
TTITLE3=I'll Take My Sorrow Straight - (live)
TTITLE4=IThis Kind of Happy
TTITLE5=The Way I Should (with Mark Knopfler)
TTITLE6=Letter to Mom
TTITLE7=Keep Me God
TTITLE8=Quality Time
TTITLE9=Walkin' Home                  
TTITLE10=Trouble  with Delbert McClinton
EXTD=
EXTT0=
EXTT1=
EXTT2=
EXTT3=
EXTT4=
EXTT5=
EXTT6=
EXTT7=
EXTT8=
EXTT9=
EXTT10=
PLAYORDER=
